<svg xmlns="http://www.w3.org/2000/svg" viewBox="0 0 100 100"><defs><clipPath id="c"><circle cx="50" cy="50" r="50"/></clipPath><radialGradient id="g" cx="50%" cy="35%" r="70%"><stop offset="0" stop-color="#9fb6c9"/><stop offset="1" stop-color="#7f91a0"/></radialGradient></defs><g clip-path="url(#c)"><rect width="100" height="100" fill="url(#g)"/><path d="M29 46 C24 60 28 72 33 74 L36 54 Z M71 46 C76 60 72 72 67 74 L64 54 Z" fill="#111013"/><path d="M8 104 C10 84 28 75 50 75 C72 75 90 84 92 104 Z" fill="#26262e"/><path d="M8 104 C10 84 28 75 50 75 C72 75 90 84 92 104 Z" fill="none" stroke="#1c1c22" stroke-width="1.2" opacity=".5"/><path d="M40 76 L50 90 L60 76 Z" fill="#f0ad2c"/><path d="M42 60 L42 74 Q50 80 58 74 L58 60 Z" fill="#d8bba4"/><ellipse cx="31" cy="50" rx="4.6" ry="5.6" fill="#ddbfa8"/><ellipse cx="69" cy="50" rx="4.6" ry="5.6" fill="#ddbfa8"/><ellipse cx="50" cy="48" rx="19" ry="21" fill="#f6d5bb"/><path d="M29 52 C27 34 38 27 50 27 C62 27 73 34 71 52 C68 42 60 36 50 36 C42 36 33 42 29 52 Z" fill="#111013"/><path d="M26 34 C28 22 44 18 56 20 C68 22 76 28 72 34 C62 30 40 30 26 34 Z" fill="#d23c3c"/><circle cx="52" cy="19" r="2" fill="#a92c2c"/><ellipse cx="43" cy="49" rx="2.3" ry="2.9" fill="#2b2530"/><circle cx="43.8" cy="48" r=".8" fill="#fff"/><ellipse cx="57" cy="49" rx="2.3" ry="2.9" fill="#2b2530"/><circle cx="57.8" cy="48" r=".8" fill="#fff"/><path d="M39.5 43.5 Q43 41.6 46.5 43" stroke="#111013" stroke-width="1.8" fill="none" stroke-linecap="round"/><path d="M53.5 43 Q57 41.6 60.5 43.5" stroke="#111013" stroke-width="1.8" fill="none" stroke-linecap="round"/><path d="M49 51.5 Q48 55 50.5 55.2" stroke="#b89f8c" stroke-width="1.4" fill="none" stroke-linecap="round"/><path d="M45 60 Q51 62.5 56 58" stroke="#2b2530" stroke-width="1.8" fill="none" stroke-linecap="round"/><rect x="37" y="45" width="11" height="8" rx="3.5" fill="#2b2530" stroke="#2b2530" stroke-width="1.8"/><rect x="52" y="45" width="11" height="8" rx="3.5" fill="#2b2530" stroke="#2b2530" stroke-width="1.8"/><path d="M48 48.5 Q50 47.2 52 48.5" stroke="#2b2530" stroke-width="1.6" fill="none"/></g></svg>