<svg xmlns="http://www.w3.org/2000/svg" viewBox="0 0 100 100"><defs><clipPath id="cc"><circle cx="50" cy="50" r="50"/></clipPath><radialGradient id="cg" cx="50%" cy="30%" r="75%"><stop offset="0" stop-color="#ffb3c9"/><stop offset="1" stop-color="#d9577f"/></radialGradient></defs>
<g clip-path="url(#cc)"><rect width="100" height="100" fill="url(#cg)"/>
<g fill="#fff" opacity=".55"><path d="M16 22 c-4 -4 -9 1 0 6 c9 -5 4 -10 0 -6Z"/><path d="M84 18 c-3 -3 -7 1 0 5 c7 -4 3 -8 0 -5Z"/><path d="M86 60 c-3 -3 -7 1 0 5 c7 -4 3 -8 0 -5Z"/></g>
<path d="M30 74 C12 66 8 50 14 44 C20 54 26 58 34 62 Z" fill="#fff"/><path d="M70 74 C88 66 92 50 86 44 C80 54 74 58 66 62 Z" fill="#fff"/>
<path d="M10 104 C12 86 30 76 50 76 C70 76 88 86 90 104 Z" fill="#fff7f0"/><path d="M50 84 c-5 -5 -11 1 0 8 c11 -7 5 -13 0 -8Z" fill="#e8336b"/>
<circle cx="50" cy="52" r="19" fill="#f6d1b3"/>
<g fill="#f2c14e"><circle cx="36" cy="38" r="7"/><circle cx="45" cy="32" r="7"/><circle cx="55" cy="31" r="7"/><circle cx="64" cy="37" r="7"/><circle cx="68" cy="46" r="5"/><circle cx="32" cy="46" r="5"/></g>
<circle cx="43" cy="53" r="2.4" fill="#2b2230"/><circle cx="57" cy="53" r="2.4" fill="#2b2230"/><circle cx="37" cy="59" r="3.4" fill="#ff8aa6" opacity=".7"/><circle cx="63" cy="59" r="3.4" fill="#ff8aa6" opacity=".7"/>
<path d="M44 61 Q50 66 56 61" fill="none" stroke="#a8455c" stroke-width="2" stroke-linecap="round"/></g></svg>
