<svg xmlns="http://www.w3.org/2000/svg" viewBox="0 0 100 100"><defs><clipPath id="c"><circle cx="50" cy="50" r="50"/></clipPath><radialGradient id="g" cx="50%" cy="35%" r="70%"><stop offset="0" stop-color="#ffd98a"/><stop offset="1" stop-color="#ccad6e"/></radialGradient></defs><g clip-path="url(#c)"><rect width="100" height="100" fill="url(#g)"/><path d="M28 50 C22 70 30 84 38 86 L38 60 Z M72 50 C78 70 70 84 62 86 L62 60 Z" fill="#2d2438"/><path d="M8 104 C10 84 28 75 50 75 C72 75 90 84 92 104 Z" fill="#8b5cf6"/><path d="M8 104 C10 84 28 75 50 75 C72 75 90 84 92 104 Z" fill="none" stroke="#6845b8" stroke-width="1.2" opacity=".5"/><path d="M42 60 L42 74 Q50 80 58 74 L58 60 Z" fill="#d4b091"/><ellipse cx="31" cy="50" rx="4.6" ry="5.6" fill="#d8b494"/><ellipse cx="69" cy="50" rx="4.6" ry="5.6" fill="#d8b494"/><ellipse cx="50" cy="48" rx="19" ry="21" fill="#f1c9a5"/><path d="M29 52 C26 30 40 22 51 22 C64 22 74 30 71 52 C69 42 64 36 58 33 C50 38 38 40 29 52 Z" fill="#2d2438"/><ellipse cx="40" cy="56" rx="3.8" ry="2.3" fill="#ff8a7a" opacity=".32"/><ellipse cx="60" cy="56" rx="3.8" ry="2.3" fill="#ff8a7a" opacity=".32"/><ellipse cx="43" cy="49" rx="2.3" ry="2.9" fill="#2b2530"/><circle cx="43.8" cy="48" r=".8" fill="#fff"/><path d="M41 46.6 l-1.6 -1.4" stroke="#2b2530" stroke-width="1.1" stroke-linecap="round"/><ellipse cx="57" cy="49" rx="2.3" ry="2.9" fill="#2b2530"/><circle cx="57.8" cy="48" r=".8" fill="#fff"/><path d="M59 46.6 l1.6 -1.4" stroke="#2b2530" stroke-width="1.1" stroke-linecap="round"/><path d="M39.5 43.5 Q43 41.6 46.5 43" stroke="#2d2438" stroke-width="1.8" fill="none" stroke-linecap="round"/><path d="M53.5 43 Q57 41.6 60.5 43.5" stroke="#2d2438" stroke-width="1.8" fill="none" stroke-linecap="round"/><path d="M49 51.5 Q48 55 50.5 55.2" stroke="#b4967b" stroke-width="1.4" fill="none" stroke-linecap="round"/><path d="M45.5 59 Q50 63.5 54.5 59 Q50 60.3 45.5 59 Z" fill="#c9455a"/><rect x="37" y="45" width="11" height="8" rx="3.5" fill="rgba(255,255,255,.18)" stroke="#d23c3c" stroke-width="1.8"/><rect x="52" y="45" width="11" height="8" rx="3.5" fill="rgba(255,255,255,.18)" stroke="#d23c3c" stroke-width="1.8"/><path d="M48 48.5 Q50 47.2 52 48.5" stroke="#d23c3c" stroke-width="1.6" fill="none"/></g></svg>